# xmcd
#
# Track frame offsets: 
#        150
#        14201
#        29023
#        45325
#        59619
#        73014
#        90075
#        103988
#        120838
#        134967
#        153166
#        166705
#        179901
#
# Disc length: 2639 seconds
#
# Revision: 2
# Processed by: cddbd v1.5.2PL0 Copyright (c) Steve Scherf et al.
# Submitted via: ExactAudioCopy v1.0b3
#
DISCID=b50a4d0d
DTITLE=Tommy Steiner - Wilde Jahre
DYEAR=2004
DGENRE=Schlager
TTITLE0=Ich will Sommer
TTITLE1=Ich denk an Dich
TTITLE2=Wilde Jahre
TTITLE3=Du bist gut
TTITLE4=Ich hab Dich lieb
TTITLE5=Lieber Gott
TTITLE6=Liebe mich
TTITLE7=Wie kannst Du denn einfach so von mir gehen
TTITLE8=Irgendwann
TTITLE9=Stell Dir vor: Ich liebe Dich!
TTITLE10=Ich hab nie mehr so geliebt
TTITLE11=Will bei dir sein
TTITLE12=Die Fischer von San Juan (Remix)
EXTD=
EXTT0=
EXTT1=
EXTT2=
EXTT3=
EXTT4=
EXTT5=
EXTT6=
EXTT7=
EXTT8=
EXTT9=
EXTT10=
EXTT11=
EXTT12=Bonus-Track
PLAYORDER=
